# xmcd CD database file
#
# Track frame offsets:
#	150
#	3393
#	5044
#	6644
#	8364
#	10060
#	11747
#	13442
#	15158
#	16688
#	18389
#	20177
#	21675
#	23157
#	24668
#	26232
#	27740
#	29310
#	30865
#	32255
#	33982
#	35648
#	37356
#	39073
#	40822
#	42552
#	44266
#	46001
#	47558
#	49110
#	50639
#	51974
#	53495
#	54711
#	56135
#	57364
#	58618
#	60000
#	61544
#	62780
#	64327
#	65819
#	67687
#	69218
#	70427
#	71829
#	73260
#	74564
#	75927
#	77188
#	78419
#	79732
#	81271
#	82721
#	84289
#	85935
#	87326
#	88722
#	90167
#	91561
#	93261
#	94685
#	95921
#	97270
#	98671
#	100115
#	101746
#	103197
#	104639
#	106511
#	108452
#	133377
#	158302
#	179002
#	199702
#	220962
#	242221
#	262621
#	283021
#	301212
#
# Disc length: 4255 seconds
#
# Revision: 0
# Processed by: cddbd v1.5.2PL0 Copyright (c) Steve Scherf et al.
# Submitted via: CDex 1.70beta3
#
DISCID=23109d50
DTITLE=藤岡幹大 - アドリブ・ギター 虎の巻 ～HR/HM編～
DYEAR=2016
DGENRE=Lesson
TTITLE0=ジャムの雰囲気はこんな感じ!
TTITLE1=C メジャー・スケール・エクササイズ Pt.1/5弦ルート①
TTITLE2=C メジャー・スケール・エクササイズ Pt.2/5弦ルート②
TTITLE3=C メジャー・スケール・エクササイズ Pt.3/6弦ルート①(重要!)
TTITLE4=C メジャー・スケール・エクササイズ Pt.4/6弦ルート②
TTITLE5=C メジャー・スケール・エクササイズ Pt.5/4弦ルート
TTITLE6=A マイナー・スケール・エクササイズ Pt.1/5弦ルート①
TTITLE7=A マイナー・スケール・エクササイズ Pt.2/5弦ルート②(重要!)
TTITLE8=A マイナー・スケール・エクササイズ Pt.3/6弦ルート①
TTITLE9=A マイナー・スケール・エクササイズ Pt.4/6弦ルート②(重要!)
TTITLE10=A マイナー・スケール・エクササイズ Pt.5/4弦ルート
TTITLE11=A マイナー・ペンタのエクササイズ/5弦ルート
TTITLE12=A マイナー・ペンタのエクササイズ/6弦ルート
TTITLE13=C メジャー・ペンタのエクササイズ/5弦ルート
TTITLE14=C メジャー・ペンタのエクササイズ/6弦ルート
TTITLE15=A マイナー・ペンタ+♭5thのエクササイズ/5弦ルート
TTITLE16=A マイナー・ペンタ+♭5thのエクササイズ/6弦ルート
TTITLE17=A マイナー・ペンタの6弦ルートからのポジションチェンジ
TTITLE18=A マイナー・ペンタの5弦ルートからのポジションチェンジ
TTITLE19=A ドリアン・スケールのエクササイズ/5弦ルート
TTITLE20=A ドリアン・スケールのエクササイズ/6弦ルート
TTITLE21=A フリジアン・スケールのエクササイズ/5弦ルート
TTITLE22=A フリジアン・スケールのエクササイズ/6弦ルート
TTITLE23=A ハーモニック・マイナー・スケール・エクササイズ/5弦ルート
TTITLE24=A ハーモニック・マイナー・スケール・エクササイズ/6弦ルート
TTITLE25=A ハーモニック・マイナー・P5th↓のエクササイズ/6弦ルート
TTITLE26=A ハーモニック・マイナー・P5th↓のエクササイズ/5弦ルート
TTITLE27=ディミニッシュ・アルペジオのエクササイズ
TTITLE28=平調子のエクササイズ
TTITLE29=古今調子のエクササイズ
TTITLE30=フル・ピッキングによる畳み掛けリック【基本】(Key=Aマイナー)
TTITLE31=フル・ピッキングによる畳み掛けリック【発展】(Key=Eマイナー)
TTITLE32=ブリッジ・ミュートによる表情付け【基本】(Key=Eマイナー)
TTITLE33=ブリッジ・ミュートによる表情付け【発展】(Key=Eマイナー)
TTITLE34=解放を絡めた連続H&Pリック【基本】(Key=Eマイナー)
TTITLE35=解放を絡めた連続H&Pリック【発展】(Key=Eマイナー)
TTITLE36=メジャー型3本弦アルペジオ【基本】
TTITLE37=メジャー型5本弦アルペジオ【発展】
TTITLE38=マイナー型3本弦アルペジオ【基本】
TTITLE39=マイナー型5本弦アルペジオ【発展】
TTITLE40=ディミニッシュ型3本弦アルペジオ【基本】
TTITLE41=ディミニッシュ型4本弦アルペジオ【発展】
TTITLE42=両手のシンクロが鍵を握る6本弦スウィープ【基本】
TTITLE43=両手のシンクロが鍵を握る6本弦スウィープ【発展】
TTITLE44=ノイズに要注意のスキッピング・アルペジオ【基本】
TTITLE45=ノイズに要注意のスキッピング・アルペジオ【発展】
TTITLE46=ポジション移動も難所となるオクターブ移動【基本】
TTITLE47=ポジション移動も難所となるオクターブ移動【発展】
TTITLE48=リニアに移動する1本弦上タッピング (Key=Dマイナー)
TTITLE49=弦跳びを含む1本指タップ (Key=Aマイナー)
TTITLE50=4ノートTAPによるリニア移動【基本】(Key=Eマイナー)
TTITLE51=4ノートTAPによるリニア移動【発展】(Key=Eマイナー)
TTITLE52=超絶両手Tapによるアルペジオ【基本】
TTITLE53=超絶両手Tapによるアルペジオ【発展】
TTITLE54=トップ・ノートをペダルとしたクラシカル・フレーズ【基本】
TTITLE55=ペダル奏法を用いたネオクラ・ブルース【発展】
TTITLE56=コード構成音を見据えたストレッチ・フレージング【基本】
TTITLE57=コード構成音を見据えたストレッチ・フレージング【発展】
TTITLE58=異弦同音含みのストレッチ・ペンタ【基本】
TTITLE59=異弦同音含みのストレッチ・ペンタ【発展】
TTITLE60=マイナー・ペンタ+♭5thの使用例【基本】(Key=Eマイナー)
TTITLE61=マイナー・ペンタ+♭5thの使用例【発展】(Key=Eマイナー)
TTITLE62=ペンタを軸にしたアウト・フレーズ【基本】(Key=G)
TTITLE63=ペンタを軸にしたアウト・フレーズ【発展】(Key=Eマイナー)
TTITLE64=チキン・ピッキングを用いたテクニカル系リック【基本】
TTITLE65=チキン・ピッキングを用いたテクニカル系リック【発展】
TTITLE66=ペンタトニック・ランでチェンジ・アップ【基本】(Key=Aマイナー)
TTITLE67=ペンタトニック・ランでチェンジ・アップ【基本】(Key=Eマイナー)
TTITLE68=古今調子による和風メタル【バッキング】(Key=E)
TTITLE69=古今調子による和風メタル【ソロ】(Key=E)
TTITLE70=80'sを彷彿とさせるヘヴィ・メタル系例題曲のコード進行 [バッキング&リード・ギター入り]
TTITLE71=80'sを彷彿とさせるヘヴィ・メタル系例題曲のコード進行 [バッキング&リード・ギターなし]
TTITLE72=ラウド系モダン・ヘヴィ風セッション曲のコード進行 [バッキング&リード・ギター入り]
TTITLE73=ラウド系モダン・ヘヴィ風セッション曲のコード進行 [バッキング&リード・ギターなし]
TTITLE74=テンション感が異様に高いスラッシュ系セッション曲のコード進行 [バッキング&リード・ギター入り]
TTITLE75=テンション感が異様に高いスラッシュ系セッション曲のコード進行 [バッキング&リード・ギターなし]
TTITLE76=分数コードを多用したネオクラ系例題曲のコード進行 [バッキング&リード・ギター入り]
TTITLE77=分数コードを多用したネオクラ系例題曲のコード進行 [バッキング&リード・ギターなし]
TTITLE78=リズム的遊びを取り入れたプログレ系Hrのコード進行 [バッキング&リード・ギター入り]
TTITLE79=リズム的遊びを取り入れたプログレ系HRのコード進行[バッキング&リード・ギターなし]
EXTD=YEAR: 2016
EXTT0=
EXTT1=
EXTT2=
EXTT3=
EXTT4=
EXTT5=
EXTT6=
EXTT7=
EXTT8=
EXTT9=
EXTT10=
EXTT11=
EXTT12=
EXTT13=
EXTT14=
EXTT15=
EXTT16=
EXTT17=
EXTT18=
EXTT19=
EXTT20=
EXTT21=
EXTT22=
EXTT23=
EXTT24=
EXTT25=
EXTT26=
EXTT27=
EXTT28=
EXTT29=
EXTT30=
EXTT31=
EXTT32=
EXTT33=
EXTT34=
EXTT35=
EXTT36=
EXTT37=
EXTT38=
EXTT39=
EXTT40=
EXTT41=
EXTT42=
EXTT43=
EXTT44=
EXTT45=
EXTT46=
EXTT47=
EXTT48=
EXTT49=
EXTT50=
EXTT51=
EXTT52=
EXTT53=
EXTT54=
EXTT55=
EXTT56=
EXTT57=
EXTT58=
EXTT59=
EXTT60=
EXTT61=
EXTT62=
EXTT63=
EXTT64=
EXTT65=
EXTT66=
EXTT67=
EXTT68=
EXTT69=
EXTT70=
EXTT71=
EXTT72=
EXTT73=
EXTT74=
EXTT75=
EXTT76=
EXTT77=
EXTT78=
EXTT79=
PLAYORDER=
